<svg width="19" height="19" viewBox="0 0 19 19" fill="none" xmlns="http://www.w3.org/2000/svg">
<g clip-path="url(#clip0_557_104)">
<path d="M17.7735 2.34766H11.4702V4.43404H13.5555V5.85409H11.4702V7.24198H13.5342V8.64036H11.4702V10.0387H13.5342V11.4371H11.4702V12.8355H13.5342V14.2339H11.4702V16.3314H17.7735C18.0907 16.3314 18.35 16.0581 18.35 15.7231V2.95595C18.35 2.62104 18.0907 2.34766 17.7735 2.34766ZM16.9741 14.2339H14.2221V12.8355H16.9741V14.2339ZM16.9741 11.4371H14.2221V10.0387H16.9741V11.4371ZM16.9741 8.64036H14.2221V7.24198H16.9741V8.64036ZM16.9741 5.8436H14.2221V4.44522H16.9741V5.8436Z" fill="#58AC43"/>
<path d="M0.462524 2.26996V16.4097L10.7822 18.4289V0.25L0.462524 2.26996ZM6.99009 12.8913L5.78956 10.5847C5.74415 10.4987 5.69737 10.3407 5.64852 10.1107H5.62995C5.60724 10.219 5.55358 10.3841 5.46896 10.605L4.26431 12.8913H2.39369L4.61449 9.35065L2.58288 5.80926H4.49272L5.48891 7.93269C5.56665 8.1005 5.63614 8.29977 5.69806 8.5298H5.71732C5.75654 8.39136 5.82946 8.1858 5.9361 7.91242L7.04375 5.80856H8.7926L6.7032 9.31989L8.85107 12.8906L6.99009 12.8913Z" fill="#58AC43"/>
</g>
<defs>
<clipPath id="clip0_557_104">
<rect width="17.8875" height="18.1789" fill="white" transform="translate(0.462524 0.25)"/>
</clipPath>
</defs>
</svg>
