<svg width="20" height="21" viewBox="0 0 20 21" fill="none" xmlns="http://www.w3.org/2000/svg">
<g clip-path="url(#clip0_557_114)">
<path d="M18.2188 10.3496H1.65625" stroke="#4C5CEC" stroke-width="2" stroke-linecap="round" stroke-linejoin="round"/>
<path d="M4.51328 4.55041L1.65625 10.3491V15.3988C1.65625 15.8453 1.83075 16.2734 2.14135 16.5891C2.45196 16.9047 2.87324 17.0821 3.3125 17.0821H16.5625C17.0018 17.0821 17.423 16.9047 17.7336 16.5891C18.0443 16.2734 18.2188 15.8453 18.2188 15.3988V10.3491L15.3617 4.55041C15.2246 4.26997 15.0132 4.03397 14.7514 3.86893C14.4895 3.7039 14.1875 3.61638 13.8794 3.61621H5.99562C5.68749 3.61638 5.38552 3.7039 5.12365 3.86893C4.86178 4.03397 4.6504 4.26997 4.51328 4.55041Z" stroke="#4C5CEC" stroke-width="2" stroke-linecap="round" stroke-linejoin="round"/>
<path d="M4.96875 13.7158H4.97708" stroke="#4C5CEC" stroke-width="2" stroke-linecap="round" stroke-linejoin="round"/>
<path d="M8.28125 13.7158H8.28958" stroke="#4C5CEC" stroke-width="2" stroke-linecap="round" stroke-linejoin="round"/>
</g>
<defs>
<clipPath id="clip0_557_114">
<rect width="19.875" height="20.1988" fill="white" transform="translate(0 0.25)"/>
</clipPath>
</defs>
</svg>
