<svg width="21" height="21" viewBox="0 0 21 21" fill="none" xmlns="http://www.w3.org/2000/svg">
<g clip-path="url(#clip0_557_108)">
<path d="M16.386 10.3399C16.3861 9.32427 16.1433 8.32387 15.6785 7.4248L14.7493 8.36916C15.0103 8.99227 15.1445 9.66264 15.1438 10.3399H16.386Z" fill="#672387"/>
<path d="M14.7799 6.55275L13.9016 5.66016L10.9733 8.63613C10.7246 8.51275 10.4518 8.44789 10.1751 8.44639C9.80653 8.44639 9.44628 8.55745 9.13987 8.76553C8.83345 8.9736 8.59463 9.26935 8.4536 9.61537C8.31257 9.96138 8.27568 10.3421 8.34757 10.7095C8.41947 11.0768 8.59693 11.4142 8.85751 11.679C9.1181 11.9439 9.4501 12.1242 9.81154 12.1973C10.173 12.2703 10.5476 12.2328 10.8881 12.0895C11.2286 11.9462 11.5196 11.7035 11.7243 11.3921C11.9291 11.0807 12.0383 10.7146 12.0383 10.34C12.0369 10.0588 11.973 9.78148 11.8516 9.52873L14.7799 6.55275ZM10.1751 10.9712C10.0522 10.9712 9.93213 10.9342 9.82999 10.8649C9.72785 10.7955 9.64824 10.6969 9.60123 10.5816C9.55422 10.4662 9.54193 10.3393 9.56589 10.2169C9.58986 10.0944 9.64901 9.98197 9.73587 9.8937C9.82273 9.80542 9.9334 9.7453 10.0539 9.72095C10.1744 9.69659 10.2992 9.70909 10.4127 9.75687C10.5262 9.80464 10.6232 9.88554 10.6915 9.98935C10.7597 10.0931 10.7961 10.2152 10.7961 10.34C10.7959 10.5074 10.7304 10.6678 10.614 10.7861C10.4976 10.9045 10.3397 10.971 10.1751 10.9712Z" fill="#672387"/>
<path d="M10.1751 5.28978C10.8415 5.28911 11.5011 5.42552 12.1143 5.69079L13.0435 4.74643C12.0975 4.24309 11.0397 3.99647 9.97248 4.03043C8.90522 4.0644 7.86466 4.3778 6.95153 4.9403C6.0384 5.5028 5.28362 6.29536 4.76026 7.24124C4.23689 8.18713 3.96266 9.25431 3.96412 10.3395H5.2063C5.20782 9.00069 5.73179 7.71717 6.66329 6.7705C7.59478 5.82383 8.85772 5.29132 10.1751 5.28978Z" fill="#672387"/>
<path d="M10.1751 19.1769C8.45528 19.1769 6.77413 18.6586 5.3442 17.6876C3.91426 16.7166 2.79976 15.3364 2.14163 13.7217C1.4835 12.1069 1.31131 10.3301 1.64682 8.6159C1.98233 6.9017 2.81048 5.3271 4.02654 4.09122C5.2426 2.85535 6.79196 2.01371 8.47868 1.67273C10.1654 1.33176 11.9137 1.50676 13.5026 2.17561C15.0915 2.84446 16.4495 3.97712 17.4049 5.43035C18.3604 6.88358 18.8704 8.59212 18.8704 10.3399C18.8678 12.6828 17.9508 14.929 16.3207 16.5857C14.6906 18.2424 12.4804 19.1742 10.1751 19.1769ZM10.1751 2.76536C8.70096 2.76536 7.25998 3.2096 6.03432 4.0419C4.80866 4.8742 3.85337 6.05719 3.28926 7.44126C2.72515 8.82532 2.57756 10.3483 2.86514 11.8176C3.15272 13.287 3.86256 14.6366 4.9049 15.6959C5.94724 16.7552 7.27526 17.4767 8.72102 17.7689C10.1668 18.0612 11.6654 17.9112 13.0272 17.3379C14.3891 16.7646 15.5531 15.7937 16.3721 14.5481C17.1911 13.3025 17.6282 11.838 17.6282 10.3399C17.6259 8.33172 16.84 6.40643 15.4427 4.98642C14.0455 3.56641 12.1511 2.76765 10.1751 2.76536Z" fill="#672387"/>
</g>
<defs>
<clipPath id="clip0_557_108">
<rect width="19.875" height="20.1988" fill="white" transform="translate(0.237549 0.240234)"/>
</clipPath>
</defs>
</svg>
