<svg width="18" height="20" viewBox="0 0 18 20" fill="none" xmlns="http://www.w3.org/2000/svg">
<g clip-path="url(#clip0_557_95)">
<path d="M17.1547 3.92285V8.46758H12.6829" stroke="#FF6F6F" stroke-width="2" stroke-linecap="round" stroke-linejoin="round"/>
<path d="M0.757935 16.0418V11.4971H5.22981" stroke="#FF6F6F" stroke-width="2" stroke-linecap="round" stroke-linejoin="round"/>
<path d="M2.62867 7.70993C3.00667 6.62434 3.6491 5.65375 4.49602 4.88873C5.34295 4.12371 6.36676 3.5892 7.47192 3.33507C8.57709 3.08093 9.72759 3.11547 10.8161 3.43544C11.9046 3.75541 12.8955 4.3504 13.6966 5.16488L17.1548 8.46739M0.757935 11.4972L4.21618 14.7997C5.01721 15.6142 6.00819 16.2092 7.09668 16.5292C8.18516 16.8491 9.33566 16.8837 10.4408 16.6295C11.546 16.3754 12.5698 15.8409 13.4167 15.0759C14.2636 14.3108 14.9061 13.3403 15.2841 12.2547" stroke="#FF6F6F" stroke-width="2" stroke-linecap="round" stroke-linejoin="round"/>
</g>
<defs>
<clipPath id="clip0_557_95">
<rect width="17.8875" height="18.1789" fill="white" transform="translate(0.0125732 0.892578)"/>
</clipPath>
</defs>
</svg>
