<svg width="19" height="19" viewBox="0 0 19 19" fill="none" xmlns="http://www.w3.org/2000/svg">
<g clip-path="url(#clip0_557_119)">
<path d="M1.53284 3.29102V7.83575H6.00471" stroke="#D00000" stroke-width="2" stroke-linecap="round" stroke-linejoin="round"/>
<path d="M3.40357 11.6224C3.88683 13.0164 4.80277 14.2131 6.0134 15.032C7.22403 15.851 8.66375 16.2479 10.1156 16.163C11.5675 16.0781 12.9529 15.5159 14.0631 14.5612C15.1733 13.6065 15.9481 12.3109 16.2708 10.8698C16.5935 9.42865 16.4466 7.91996 15.8522 6.57104C15.2579 5.22212 14.2483 4.10605 12.9755 3.39099C11.7027 2.67593 10.2358 2.40062 8.79567 2.60653C7.35556 2.81245 6.0203 3.48844 4.99109 4.53266L1.53284 7.83516" stroke="#D00000" stroke-width="2" stroke-linecap="round" stroke-linejoin="round"/>
</g>
<defs>
<clipPath id="clip0_557_119">
<rect width="17.8875" height="18.1789" fill="white" transform="translate(0.787476 0.260742)"/>
</clipPath>
</defs>
</svg>
