<svg width="19" height="20" viewBox="0 0 19 20" fill="none" xmlns="http://www.w3.org/2000/svg">
<g clip-path="url(#clip0_557_122)">
<path d="M9.5062 0.902344C8.89045 0.902344 8.38823 1.41274 8.38823 2.03853V7.71944C8.38823 8.34523 8.89045 8.85562 9.5062 8.85562C10.122 8.85562 10.6242 8.34523 10.6242 7.71944V2.03853C10.6242 1.41274 10.122 0.902344 9.5062 0.902344ZM1.68042 2.03853L3.97313 4.36859C1.60618 6.7741 1.00789 10.4534 2.48396 13.5024C3.9644 16.5515 7.19602 18.3179 10.5106 17.8785C13.8296 17.4391 16.511 14.896 17.1748 11.5674C17.8386 8.23427 16.3363 4.83016 13.4453 3.12145C12.9125 2.8019 12.2269 2.9883 11.9168 3.52977C11.6068 4.07123 11.7858 4.76803 12.3186 5.08314C14.3886 6.30809 15.4585 8.72692 14.9825 11.1191C14.5109 13.5069 12.6025 15.3132 10.2268 15.6283C7.84672 15.939 5.54964 14.6874 4.49281 12.4994C3.43598 10.3114 3.85959 7.69725 5.55401 5.97522L7.27026 7.71944V3.17027C7.27026 2.57999 6.76805 2.03853 6.1523 2.03853H1.68042Z" fill="#008136"/>
</g>
<defs>
<clipPath id="clip0_557_122">
<rect width="17.8875" height="18.1789" fill="white" transform="translate(0.5625 0.902344)"/>
</clipPath>
</defs>
</svg>
