<svg width="19" height="20" viewBox="0 0 19 20" fill="none" xmlns="http://www.w3.org/2000/svg">
<path d="M3.02344 5.4375H4.51406H16.4391" stroke="#FF0000" stroke-width="2" stroke-linecap="round" stroke-linejoin="round"/>
<path d="M14.9484 5.43705V16.0414C14.9484 16.4432 14.7914 16.8285 14.5118 17.1126C14.2323 17.3967 13.8531 17.5563 13.4578 17.5563H6.00466C5.60932 17.5563 5.23018 17.3967 4.95063 17.1126C4.67109 16.8285 4.51404 16.4432 4.51404 16.0414V5.43705M6.74998 5.43705V3.92214C6.74998 3.52036 6.90702 3.13503 7.18657 2.85093C7.46612 2.56683 7.84526 2.40723 8.2406 2.40723H11.2219C11.6172 2.40723 11.9963 2.56683 12.2759 2.85093C12.5554 3.13503 12.7125 3.52036 12.7125 3.92214V5.43705" stroke="#FF0000" stroke-width="2" stroke-linecap="round" stroke-linejoin="round"/>
<path d="M8.2406 9.22461V13.7693" stroke="#FF0000" stroke-width="2" stroke-linecap="round" stroke-linejoin="round"/>
<path d="M11.2218 9.22461V13.7693" stroke="#FF0000" stroke-width="2" stroke-linecap="round" stroke-linejoin="round"/>
</svg>
