<svg width="22" height="22" viewBox="0 0 22 22" fill="none" xmlns="http://www.w3.org/2000/svg">
<path d="M1.22197 7.40179C0.84473 7.73943 0.812628 8.31894 1.15026 8.69617C1.48789 9.07341 2.06741 9.10551 2.44463 8.76788L1.22197 7.40179ZM19.5553 8.76788C19.9325 9.10551 20.512 9.07341 20.8496 8.69617C21.1873 8.31894 21.1552 7.73943 20.778 7.40179L19.5553 8.76788ZM11 17.417C10.4937 17.417 10.0833 17.8274 10.0833 18.3337C10.0833 18.8399 10.4937 19.2503 11 19.2503V17.417ZM11.0091 19.2503C11.5154 19.2503 11.9258 18.8399 11.9258 18.3337C11.9258 17.8274 11.5154 17.417 11.0091 17.417V19.2503ZM13.4663 15.6203C13.8407 15.961 14.4205 15.9335 14.7611 15.5591C15.1019 15.1845 15.0744 14.6048 14.6999 14.2641L13.4663 15.6203ZM16.5494 12.2289C16.9238 12.5696 17.5036 12.5422 17.8443 12.1676C18.1849 11.7931 18.1575 11.2134 17.783 10.8727L16.5494 12.2289ZM7.30004 14.2641C6.92554 14.6048 6.8981 15.1845 7.23876 15.5591C7.57942 15.9335 8.15917 15.961 8.53367 15.6203L7.30004 14.2641ZM4.21694 10.8727C3.84244 11.2134 3.815 11.7931 4.15566 12.1676C4.49632 12.5422 5.07606 12.5696 5.45057 12.2289L4.21694 10.8727ZM2.44463 8.76788C4.7157 6.73522 7.71253 5.50033 11 5.50033V3.66699C7.24415 3.66699 3.81616 5.07992 1.22197 7.40179L2.44463 8.76788ZM11 5.50033C14.2874 5.50033 17.2843 6.73522 19.5553 8.76788L20.778 7.40179C18.1838 5.07992 14.7557 3.66699 11 3.66699V5.50033ZM11 19.2503H11.0091V17.417H11V19.2503ZM11 14.667C11.9503 14.667 12.8143 15.0273 13.4663 15.6203L14.6999 14.2641C13.7237 13.3761 12.4241 12.8337 11 12.8337V14.667ZM11 10.0837C13.1375 10.0837 15.0833 10.8954 16.5494 12.2289L17.783 10.8727C15.9927 9.24417 13.6113 8.25033 11 8.25033V10.0837ZM8.53367 15.6203C9.18561 15.0273 10.0497 14.667 11 14.667V12.8337C9.57583 12.8337 8.27629 13.3761 7.30004 14.2641L8.53367 15.6203ZM5.45057 12.2289C6.91662 10.8954 8.86244 10.0837 11 10.0837V8.25033C8.38863 8.25033 6.00729 9.24417 4.21694 10.8727L5.45057 12.2289Z" fill="#3D50FF"/>
</svg>
