<svg width="22" height="22" viewBox="0 0 22 22" fill="none" xmlns="http://www.w3.org/2000/svg">
<path d="M1.22197 7.40114C0.84473 7.73878 0.812628 8.31829 1.15026 8.69552C1.48789 9.07276 2.06741 9.10486 2.44463 8.76722L1.22197 7.40114ZM19.5553 8.76722C19.9325 9.10486 20.512 9.07276 20.8496 8.69552C21.1873 8.31829 21.1552 7.73878 20.778 7.40114L19.5553 8.76722ZM11 17.4163C10.4937 17.4163 10.0833 17.8267 10.0833 18.333C10.0833 18.8393 10.4937 19.2497 11 19.2497V17.4163ZM11.0091 19.2497C11.5154 19.2497 11.9258 18.8393 11.9258 18.333C11.9258 17.8267 11.5154 17.4163 11.0091 17.4163V19.2497ZM13.4663 15.6197C13.8407 15.9603 14.4205 15.9329 14.7611 15.5584C15.1019 15.1839 15.0744 14.6042 14.6999 14.2635L13.4663 15.6197ZM16.5494 12.2283C16.9238 12.5689 17.5036 12.5415 17.8443 12.167C18.1849 11.7925 18.1575 11.2127 17.783 10.8721L16.5494 12.2283ZM7.30004 14.2635C6.92554 14.6042 6.8981 15.1839 7.23876 15.5584C7.57942 15.9329 8.15917 15.9603 8.53367 15.6197L7.30004 14.2635ZM4.21694 10.8721C3.84244 11.2127 3.815 11.7925 4.15566 12.167C4.49632 12.5415 5.07606 12.5689 5.45057 12.2283L4.21694 10.8721ZM9.68959 3.72414C9.18533 3.76882 8.81272 4.21386 8.8574 4.71813C8.90209 5.22242 9.34713 5.595 9.85138 5.55032L9.68959 3.72414ZM15.8943 9.51449C15.4519 9.26846 14.8938 9.42759 14.6477 9.87007C14.4017 10.3125 14.5609 10.8707 15.0033 11.1167L15.8943 9.51449ZM3.39815 2.10149C3.04016 1.74351 2.45977 1.74351 2.10178 2.10149C1.74381 2.45948 1.74381 3.03987 2.10178 3.39786L3.39815 2.10149ZM18.6018 19.8979C18.9597 20.2558 19.5402 20.2558 19.8981 19.8979C20.2561 19.5399 20.2561 18.9595 19.8981 18.6015L18.6018 19.8979ZM11 5.49967C14.2874 5.49967 17.2843 6.73457 19.5553 8.76722L20.778 7.40114C18.1838 5.07927 14.7557 3.66634 11 3.66634V5.49967ZM11 19.2497H11.0091V17.4163H11V19.2497ZM11 14.6663C11.9503 14.6663 12.8143 15.0267 13.4663 15.6197L14.6999 14.2635C13.7237 13.3755 12.4241 12.833 11 12.833V14.6663ZM8.53367 15.6197C9.18561 15.0267 10.0497 14.6663 11 14.6663V12.833C9.57583 12.833 8.27629 13.3755 7.30004 14.2635L8.53367 15.6197ZM9.85138 5.55032C10.2296 5.51681 10.6127 5.49967 11 5.49967V3.66634C10.5586 3.66634 10.1215 3.68587 9.68959 3.72414L9.85138 5.55032ZM15.0033 11.1167C15.561 11.4268 16.0794 11.8008 16.5494 12.2283L17.783 10.8721C17.2105 10.3513 16.5773 9.89427 15.8943 9.51449L15.0033 11.1167ZM2.10178 3.39786L5.01091 6.30698L6.30727 5.01061L3.39815 2.10149L2.10178 3.39786ZM2.44463 8.76722C3.49442 7.82765 4.69924 7.05869 6.01543 6.50337L5.30275 4.81423C3.79727 5.44941 2.4206 6.32834 1.22197 7.40114L2.44463 8.76722ZM5.01091 6.30698L8.67202 9.96806L9.96835 8.67173L6.30727 5.01061L5.01091 6.30698ZM8.67202 9.96806L18.6018 19.8979L19.8981 18.6015L9.96835 8.67173L8.67202 9.96806ZM5.45057 12.2283C6.56274 11.2166 7.95072 10.5058 9.4871 10.2212L9.15328 8.41856C7.27162 8.76704 5.57429 9.63742 4.21694 10.8721L5.45057 12.2283Z" fill="#FF0000"/>
</svg>
